<svg width="338" height="82" viewBox="0 0 338 82" fill="none" xmlns="http://www.w3.org/2000/svg">
<g clip-path="url(#clip0_242_2)">
<path d="M65.2299 54.41L41.0499 40.53L65.2299 26.63V54.41ZM61.0899 60.19C52.9999 64.9 44.9999 69.62 36.8599 74.28C36.5288 74.4643 36.1621 74.5757 35.7844 74.6067C35.4067 74.6378 35.0267 74.5878 34.6699 74.46C26.1299 69.62 17.6699 64.69 9.14993 59.77C8.92651 59.6063 8.7159 59.4258 8.51993 59.23L23.9999 50.34C27.4899 48.34 30.9999 46.34 34.4899 44.34C34.7475 44.1945 35.0326 44.1042 35.327 44.0749C35.6214 44.0457 35.9187 44.0781 36.1999 44.17C44.9399 49.17 53.6399 54.17 62.5199 59.25C61.9299 59.64 61.5199 59.94 61.0899 60.19ZM5.58993 26.59L29.8599 40.52L5.58993 54.52V26.59ZM14.5099 18.09C21.0699 14.29 27.6099 10.48 34.1999 6.74004C34.499 6.56432 34.8322 6.45466 35.1772 6.41844C35.5222 6.38222 35.8709 6.42027 36.1999 6.53004C44.8899 11.53 53.5399 16.53 62.4299 21.64C61.8799 22.02 61.4899 22.32 61.0699 22.56C52.9699 27.2267 44.8699 31.8934 36.7699 36.56C36.4329 36.8349 36.0181 36.9972 35.584 37.0241C35.15 37.051 34.7183 36.9412 34.3499 36.71C26.0899 31.9 17.7599 27.14 9.45993 22.36C9.15993 22.19 8.89993 21.98 8.40993 21.64L14.5099 18.09ZM70.8899 40.64C70.8899 34.29 70.8899 27.94 70.8899 21.64C70.9457 21.181 70.856 20.716 70.6336 20.3105C70.4111 19.9051 70.0671 19.5796 69.6499 19.38C58.6499 13.05 47.6499 6.67004 36.5699 0.380037C36.246 0.191886 35.885 0.0765334 35.512 0.0419952C35.139 0.00745705 34.7629 0.0545623 34.4099 0.180037C23.3199 6.52004 12.2799 13 1.19993 19.33C0.805948 19.5113 0.478476 19.8112 0.263314 20.1877C0.0481524 20.5642 -0.0439371 20.9986 -7.34124e-05 21.43C-7.34124e-05 34.0967 -7.34124e-05 46.79 -7.34124e-05 59.51C-0.0353132 59.9722 0.0736858 60.4339 0.311896 60.8315C0.550106 61.2292 0.905796 61.5431 1.32993 61.73C12.3099 68.03 23.2699 74.3634 34.2099 80.73C34.6062 81.0149 35.0819 81.1681 35.5699 81.1681C36.058 81.1681 36.5337 81.0149 36.9299 80.73C47.7499 74.3834 58.5899 68.0734 69.4499 61.8C69.9428 61.5639 70.3495 61.1796 70.6131 60.7008C70.8767 60.222 70.984 59.6728 70.9199 59.13C70.8599 53 70.8899 46.81 70.8899 40.64Z" fill="white"/>
<path d="M100.93 18.88H94.63V27.93H100.93C103.86 27.93 105.78 26.05 105.78 23.4C105.78 20.75 103.86 18.88 100.93 18.88ZM106.12 47.19L99.44 33.51H94.63V47.19H88V12.9H101.41C108.41 12.9 112.51 17.67 112.51 23.4C112.569 25.3717 111.994 27.3104 110.869 28.9306C109.744 30.5508 108.128 31.767 106.26 32.4L113.9 47.19H106.12Z" fill="white"/>
<path d="M130.47 47.47C123.47 47.47 117.89 42.71 117.89 35.47V12.9H124.56V35.2C124.56 39.14 126.87 41.5 130.47 41.5C134.07 41.5 136.47 39.15 136.47 35.2V12.9H143.1V35.44C143.06 42.71 137.49 47.47 130.47 47.47Z" fill="white"/>
<path d="M161.56 18.88H155.27V27.93H161.56C164.49 27.93 166.41 26.05 166.41 23.4C166.41 20.75 164.49 18.88 161.56 18.88ZM166.75 47.19L160.07 33.51H155.27V47.19H148.59V12.9H162C169 12.9 173.1 17.67 173.1 23.4C173.159 25.3717 172.584 27.3104 171.459 28.9306C170.334 30.5508 168.718 31.767 166.85 32.4L174.49 47.19H166.75Z" fill="white"/>
<path d="M191.49 23L187.17 35.47H195.67L191.49 23ZM199.49 47.17L197.49 41.1H185.29L183.23 47.17H176.23L188.7 12.9H193.94L206.43 47.19L199.49 47.17Z" fill="white"/>
<path d="M229.3 47.19L222.67 35.24L216.09 47.19H208.45L219.07 29.61L209.12 12.9H216.71L222.67 23.98L228.68 12.9H236.22L226.28 29.61L236.94 47.19H229.3Z" fill="white"/>
<path d="M95.64 64.75L94.78 62.24H89.86L89 64.75H87L91.57 52.29H93.09L97.66 64.75H95.64ZM92.37 55.1L90.37 60.63H94.21L92.37 55.1Z" fill="#414042"/>
<path d="M105.31 64.85C104.633 64.9098 103.952 64.8267 103.309 64.6062C102.667 64.3857 102.077 64.0327 101.58 63.57L102.75 62.4C103.091 62.7216 103.494 62.9701 103.934 63.13C104.374 63.29 104.842 63.358 105.31 63.33C106.39 63.33 107.25 62.94 107.25 62.1C107.25 61.51 106.92 61.1 106.06 61.05L104.64 60.93C103 60.79 102 60 102 58.48C102 56.75 103.49 55.77 105.35 55.77C106.532 55.6904 107.702 56.0461 108.64 56.77L107.52 57.9C106.887 57.4385 106.112 57.2122 105.33 57.26C104.26 57.26 103.72 57.73 103.72 58.39C103.72 59.05 104 59.32 104.94 59.39L106.34 59.51C108.01 59.65 108.99 60.44 108.99 62.01C109 63.89 107.42 64.85 105.31 64.85Z" fill="#414042"/>
<path d="M116 64.75V63.85C115.696 64.1721 115.328 64.4273 114.92 64.5995C114.512 64.7716 114.073 64.857 113.63 64.85C112.824 64.8764 112.039 64.5897 111.44 64.05C111.125 63.7168 110.883 63.3213 110.73 62.8891C110.576 62.4568 110.515 61.9973 110.55 61.54V55.87H112.34V61.28C112.3 61.533 112.316 61.7918 112.388 62.0376C112.46 62.2835 112.586 62.5103 112.756 62.7016C112.927 62.893 113.137 63.0441 113.373 63.1442C113.609 63.2442 113.864 63.2906 114.12 63.28C114.379 63.2925 114.637 63.2479 114.877 63.1495C115.117 63.0511 115.332 62.9012 115.508 62.7104C115.683 62.5197 115.815 62.2927 115.893 62.0455C115.971 61.7983 115.994 61.537 115.96 61.28V55.87H117.75V64.75H116Z" fill="#414042"/>
<path d="M124.91 64.7499V63.9399C124.61 64.2594 124.243 64.5072 123.834 64.6648C123.425 64.8223 122.986 64.8856 122.55 64.8499C122.119 64.8875 121.686 64.8358 121.276 64.6982C120.867 64.5605 120.49 64.3399 120.17 64.0499C119.698 63.5278 119.447 62.8432 119.47 62.1399C119.47 60.6499 120.47 59.5799 122.53 59.5799H124.88V58.9999C124.88 57.8799 124.32 57.3399 122.93 57.3399C122.559 57.296 122.183 57.3526 121.842 57.5039C121.501 57.6553 121.206 57.8957 120.99 58.1999L119.82 57.0999C120.198 56.6321 120.687 56.2656 121.242 56.0334C121.797 55.8013 122.401 55.7107 123 55.7699C125.44 55.7699 126.66 56.7699 126.66 58.7699V64.7099L124.91 64.7499ZM124.91 60.8299H122.82C121.77 60.8299 121.23 61.2999 121.23 62.0999C121.23 62.8999 121.74 63.3599 122.86 63.3599C123.156 63.3976 123.457 63.3726 123.743 63.2865C124.029 63.2003 124.294 63.055 124.52 62.8599C124.817 62.4875 124.957 62.0139 124.91 61.5399V60.8299Z" fill="#414042"/>
<path d="M138.9 64.06C138.316 64.5973 137.543 64.8813 136.75 64.85C136.31 64.8816 135.869 64.8073 135.463 64.6333C135.058 64.4594 134.7 64.1907 134.42 63.85V68.34H132.63V55.87H134.38V56.87C134.66 56.5243 135.021 56.2525 135.431 56.0782C135.84 55.9039 136.286 55.8324 136.73 55.87C137.528 55.8419 138.306 56.1252 138.9 56.66C139.79 57.55 139.9 59.05 139.9 60.4C139.9 61.75 139.79 63.17 138.9 64.06ZM136.27 57.36C134.66 57.36 134.42 58.73 134.42 60.3C134.42 61.87 134.66 63.3 136.27 63.3C137.88 63.3 138.11 61.92 138.11 60.3C138.11 58.68 137.88 57.36 136.27 57.36Z" fill="#414042"/>
<path d="M144.2 64.75C143.873 64.776 143.543 64.7303 143.236 64.616C142.928 64.5018 142.648 64.3218 142.417 64.0886C142.186 63.8554 142.008 63.5746 141.896 63.2657C141.784 62.9568 141.741 62.6273 141.77 62.3V52.3H143.56V62.2001C143.56 62.8801 143.8 63.2001 144.56 63.2001H145.35V64.7301L144.2 64.75Z" fill="#414042"/>
<path d="M151.56 64.75V63.94C151.259 64.2603 150.889 64.5085 150.479 64.666C150.069 64.8236 149.628 64.8865 149.19 64.85C148.76 64.8876 148.326 64.8359 147.917 64.6982C147.507 64.5606 147.13 64.3399 146.81 64.05C146.343 63.5251 146.093 62.8424 146.11 62.14C146.11 60.65 147.11 59.58 149.18 59.58H151.52V59C151.52 57.88 150.96 57.34 149.58 57.34C149.209 57.296 148.833 57.3527 148.492 57.504C148.151 57.6553 147.856 57.8957 147.64 58.2L146.46 57.1C146.846 56.6411 147.339 56.2842 147.895 56.061C148.451 55.8377 149.054 55.755 149.65 55.82C152.08 55.82 153.31 56.82 153.31 58.82V64.76L151.56 64.75ZM151.56 60.83H149.48C148.43 60.83 147.89 61.3 147.89 62.1C147.89 62.9 148.39 63.36 149.51 63.36C149.808 63.3979 150.11 63.373 150.398 63.2868C150.686 63.2007 150.952 63.0553 151.18 62.86C151.473 62.486 151.61 62.0126 151.56 61.54V60.83Z" fill="#414042"/>
<path d="M158.21 64.75C157.883 64.7678 157.555 64.7158 157.25 64.5975C156.944 64.4791 156.667 64.297 156.438 64.0634C156.208 63.8298 156.03 63.55 155.917 63.2425C155.803 62.935 155.757 62.6069 155.78 62.28V57.4H154.78V56H155.78V53.34H157.56V56H159.28V57.4H157.56V62.19C157.544 62.3252 157.559 62.4622 157.603 62.5909C157.648 62.7195 157.721 62.8364 157.817 62.9327C157.914 63.0289 158.03 63.1021 158.159 63.1467C158.288 63.1912 158.425 63.206 158.56 63.19H159.3V64.72L158.21 64.75Z" fill="#414042"/>
<path d="M165.79 64.75V63.94C165.49 64.2595 165.123 64.5073 164.714 64.6649C164.305 64.8224 163.867 64.8857 163.43 64.85C163 64.8882 162.566 64.8368 162.156 64.6991C161.747 64.5615 161.37 64.3405 161.05 64.05C160.578 63.5279 160.328 62.8433 160.35 62.14C160.35 60.65 161.35 59.58 163.41 59.58H165.75V59C165.75 57.88 165.19 57.34 163.81 57.34C163.439 57.2961 163.063 57.3527 162.722 57.504C162.381 57.6553 162.086 57.8958 161.87 58.2L160.7 57.1C161.084 56.6412 161.575 56.2843 162.129 56.061C162.684 55.8377 163.286 55.7549 163.88 55.82C166.31 55.82 167.54 56.82 167.54 58.82V64.76L165.79 64.75ZM165.79 60.83H163.71C162.71 60.83 162.12 61.3 162.12 62.1C162.12 62.9 162.63 63.36 163.75 63.36C164.046 63.3977 164.347 63.3727 164.633 63.2866C164.919 63.2004 165.184 63.0551 165.41 62.86C165.703 62.4861 165.84 62.0127 165.79 61.54V60.83Z" fill="#414042"/>
<path d="M171.86 57.4V64.75H170.08V57.4H169.08V56H170.08V54.67C170.057 54.3431 170.104 54.015 170.217 53.7075C170.33 53.4 170.508 53.1201 170.738 52.8865C170.967 52.6529 171.244 52.4708 171.55 52.3525C171.856 52.2341 172.183 52.1821 172.51 52.2H173.63V53.72H172.84C172.705 53.7058 172.569 53.722 172.441 53.7672C172.314 53.8125 172.197 53.8857 172.102 53.9815C172.006 54.0774 171.933 54.1934 171.887 54.3212C171.842 54.4489 171.826 54.5852 171.84 54.72V56H173.61V57.4H171.86Z" fill="#414042"/>
<path d="M180.7 63.8C179.982 64.4743 179.035 64.8497 178.05 64.8497C177.065 64.8497 176.118 64.4743 175.4 63.8C174.998 63.3175 174.698 62.7587 174.518 62.1572C174.337 61.5558 174.28 60.9241 174.35 60.3C174.282 59.6792 174.34 59.0509 174.52 58.4529C174.7 57.855 175 57.2996 175.4 56.82C176.118 56.1458 177.065 55.7704 178.05 55.7704C179.035 55.7704 179.982 56.1458 180.7 56.82C181.1 57.2996 181.399 57.855 181.58 58.4529C181.76 59.0509 181.818 59.6792 181.75 60.3C181.82 60.9241 181.763 61.5558 181.582 62.1572C181.402 62.7587 181.102 63.3175 180.7 63.8ZM179.36 57.87C179.184 57.7021 178.977 57.5706 178.751 57.4831C178.524 57.3955 178.283 57.3537 178.04 57.36C177.802 57.3538 177.565 57.3958 177.343 57.4834C177.121 57.571 176.92 57.7025 176.75 57.87C176.248 58.5746 176.031 59.4421 176.14 60.3C176.031 61.1579 176.248 62.0255 176.75 62.73C176.917 62.9021 177.118 63.0379 177.34 63.1291C177.562 63.2203 177.8 63.2648 178.04 63.26C178.284 63.2648 178.527 63.2204 178.754 63.1293C178.981 63.0383 179.187 62.9025 179.36 62.73C179.872 62.0297 180.101 61.1618 180 60.3C180.101 59.4383 179.872 58.5703 179.36 57.87Z" fill="#414042"/>
<path d="M188.56 58C188.401 57.8029 188.197 57.646 187.966 57.5418C187.735 57.4376 187.483 57.389 187.23 57.4C186.98 57.407 186.734 57.4654 186.508 57.5715C186.282 57.6777 186.08 57.8293 185.915 58.0169C185.75 58.2046 185.625 58.4242 185.548 58.6622C185.472 58.9001 185.445 59.1513 185.47 59.4V64.79H183.68V55.87H185.43V56.87C185.718 56.5266 186.08 56.2522 186.488 56.067C186.897 55.8819 187.342 55.7906 187.79 55.8C188.183 55.7802 188.575 55.845 188.941 55.9899C189.307 56.1348 189.637 56.3565 189.91 56.64L188.56 58Z" fill="#414042"/>
<path d="M201.69 64.7499V59.3399C201.69 57.9599 200.91 57.3399 199.91 57.3399C199.661 57.3279 199.412 57.3689 199.18 57.4604C198.948 57.5518 198.738 57.6915 198.564 57.8702C198.39 58.0489 198.256 58.2625 198.171 58.497C198.086 58.7314 198.051 58.9812 198.07 59.2299V64.7299H196.29V59.3399C196.33 59.0861 196.314 58.8264 196.241 58.5798C196.169 58.3332 196.042 58.1058 195.87 57.9143C195.699 57.7227 195.487 57.5718 195.25 57.4724C195.013 57.3731 194.757 57.3278 194.5 57.3399C194.241 57.3275 193.982 57.372 193.743 57.4704C193.503 57.5688 193.288 57.7187 193.112 57.9095C192.936 58.1003 192.805 58.3273 192.727 58.5745C192.649 58.8216 192.626 59.083 192.66 59.3399V64.7499H190.88V55.8699H192.63V56.7699C192.933 56.4491 193.299 56.1946 193.705 56.0225C194.111 55.8504 194.549 55.7644 194.99 55.7699C195.486 55.7468 195.979 55.8537 196.421 56.0799C196.863 56.3062 197.239 56.644 197.51 57.0599C197.839 56.6411 198.262 56.3059 198.745 56.0818C199.228 55.8576 199.758 55.7507 200.29 55.7699C201.111 55.742 201.912 56.0281 202.53 56.5699C202.856 56.8981 203.109 57.2912 203.272 57.7237C203.436 58.1562 203.507 58.6183 203.48 59.0799V64.7499H201.69Z" fill="#414042"/>
<path d="M210.52 64.75V63.94C210.22 64.2594 209.853 64.5072 209.444 64.6648C209.035 64.8223 208.597 64.8856 208.16 64.85C207.73 64.8881 207.296 64.8367 206.886 64.6991C206.477 64.5614 206.1 64.3404 205.78 64.05C205.308 63.5278 205.058 62.8432 205.08 62.14C205.08 60.65 206.08 59.58 208.14 59.58H210.48V59C210.48 57.88 209.92 57.34 208.54 57.34C208.169 57.296 207.793 57.3526 207.452 57.5039C207.111 57.6553 206.816 57.8957 206.6 58.2L205.43 57.1C205.813 56.6405 206.304 56.2831 206.859 56.0597C207.414 55.8363 208.015 55.754 208.61 55.82C211.04 55.82 212.27 56.82 212.27 58.82V64.76L210.52 64.75ZM210.52 60.83H208.4C207.35 60.83 206.81 61.3 206.81 62.1C206.81 62.9 207.32 63.36 208.44 63.36C208.736 63.3977 209.037 63.3726 209.323 63.2865C209.609 63.2003 209.874 63.055 210.1 62.86C210.393 62.486 210.53 62.0126 210.48 61.54L210.52 60.83Z" fill="#414042"/>
<path d="M223.33 64.75V63.75C223.052 64.0955 222.693 64.3674 222.285 64.5418C221.877 64.7161 221.432 64.7876 220.99 64.75C220.191 64.7802 219.412 64.4967 218.82 63.96C217.92 63.07 217.82 61.55 217.82 60.2C217.82 58.85 217.92 57.35 218.82 56.46C219.404 55.9227 220.177 55.6386 220.97 55.67C221.41 55.6384 221.851 55.7127 222.257 55.8866C222.662 56.0606 223.02 56.3293 223.3 56.67V52.29H225.08V64.75H223.33ZM221.46 57.36C219.85 57.36 219.6 58.73 219.6 60.3C219.6 61.87 219.85 63.3 221.46 63.3C223.07 63.3 223.3 61.92 223.3 60.3C223.3 58.68 223.07 57.36 221.46 57.36Z" fill="#414042"/>
<path d="M228.74 60.83C228.696 61.1473 228.722 61.4704 228.816 61.7765C228.911 62.0825 229.072 62.3639 229.288 62.6007C229.503 62.8375 229.769 63.0238 230.065 63.1464C230.361 63.269 230.68 63.3249 231 63.31C231.404 63.3333 231.808 63.2634 232.181 63.1056C232.554 62.9478 232.885 62.7064 233.15 62.4L234.29 63.47C233.878 63.9297 233.369 64.2919 232.8 64.5306C232.231 64.7693 231.616 64.8784 231 64.85C228.77 64.85 227 63.68 227 60.3C227 57.43 228.48 55.77 230.76 55.77C233.04 55.77 234.52 57.52 234.52 60.04V60.83H228.74ZM232.49 58.38C232.347 58.0371 232.103 57.746 231.791 57.5458C231.478 57.3456 231.111 57.2458 230.74 57.26C230.371 57.2521 230.009 57.3544 229.699 57.554C229.389 57.7535 229.145 58.0412 229 58.38C228.839 58.7591 228.76 59.1682 228.77 59.58H232.77C232.769 59.1639 232.674 58.7535 232.49 58.38Z" fill="#414042"/>
<path d="M244.86 64.7499V63.9399C244.561 64.26 244.193 64.5082 243.784 64.6658C243.376 64.8234 242.937 64.8864 242.5 64.8499C242.07 64.8875 241.636 64.8358 241.227 64.6982C240.817 64.5605 240.44 64.3398 240.12 64.0499C239.653 63.5251 239.403 62.8423 239.42 62.1399C239.42 60.6499 240.42 59.5799 242.48 59.5799H244.83V58.9999C244.83 57.8799 244.27 57.3399 242.89 57.3399C242.518 57.2952 242.14 57.3514 241.797 57.5027C241.454 57.654 241.158 57.8948 240.94 58.1999L239.77 57.0999C240.154 56.6259 240.651 56.2558 241.216 56.0235C241.78 55.7911 242.393 55.704 243 55.7699C245.43 55.7699 246.66 56.7699 246.66 58.7699V64.7099L244.86 64.7499ZM244.86 60.8299H242.78C241.73 60.8299 241.18 61.2999 241.18 62.0999C241.18 62.8999 241.69 63.3599 242.81 63.3599C243.106 63.3983 243.407 63.3735 243.693 63.2874C243.98 63.2012 244.244 63.0555 244.47 62.8599C244.619 62.6768 244.731 62.4658 244.798 62.2392C244.865 62.0125 244.886 61.7748 244.86 61.5399V60.8299Z" fill="#414042"/>
<path d="M251.85 68.44C251.275 68.4745 250.7 68.3881 250.161 68.1866C249.622 67.9851 249.131 67.6729 248.72 67.27L249.86 66.13C250.105 66.3911 250.403 66.5966 250.734 66.7329C251.066 66.8691 251.422 66.9329 251.78 66.92C252.073 66.9343 252.365 66.8841 252.636 66.7729C252.907 66.6618 253.15 66.4924 253.349 66.2768C253.547 66.0612 253.696 65.8046 253.784 65.5253C253.873 65.2459 253.898 64.9505 253.86 64.66V63.52C253.585 63.857 253.234 64.1235 252.836 64.2974C252.438 64.4714 252.004 64.5477 251.57 64.52C250.787 64.5435 250.026 64.26 249.45 63.73C248.6 62.87 248.45 61.63 248.45 60.12C248.45 58.61 248.59 57.38 249.45 56.52C250.035 55.9924 250.803 55.7159 251.59 55.75C252.03 55.715 252.473 55.7877 252.879 55.9619C253.285 56.1362 253.642 56.4067 253.92 56.75V55.75H255.65V64.57C255.694 65.0834 255.627 65.6004 255.453 66.0854C255.279 66.5704 255.002 67.0119 254.641 67.3796C254.28 67.7473 253.843 68.0324 253.361 68.2155C252.88 68.3986 252.364 68.4752 251.85 68.44ZM252.06 57.36C250.45 57.36 250.24 58.74 250.24 60.14C250.24 61.54 250.45 62.93 252.06 62.93C253.67 62.93 253.86 61.54 253.86 60.14C253.86 58.74 253.67 57.36 252.06 57.36Z" fill="#414042"/>
<path d="M262.88 58.0001C262.72 57.8036 262.517 57.6471 262.286 57.5429C262.055 57.4388 261.803 57.3899 261.55 57.4001C261.3 57.4072 261.054 57.4656 260.827 57.5716C260.6 57.6776 260.398 57.829 260.232 58.0165C260.066 58.204 259.94 58.4235 259.862 58.6615C259.785 58.8994 259.757 59.1508 259.78 59.4001V64.7901H258V55.8701H259.75V56.8701C260.035 56.5227 260.396 56.2455 260.805 56.06C261.215 55.8744 261.661 55.7855 262.11 55.8001C262.503 55.7816 262.895 55.8469 263.26 55.9918C263.626 56.1366 263.956 56.3576 264.23 56.6401L262.88 58.0001Z" fill="#414042"/>
<path d="M270.58 63.8C269.862 64.4743 268.915 64.8497 267.93 64.8497C266.945 64.8497 265.998 64.4743 265.28 63.8C264.887 63.3136 264.596 62.753 264.424 62.1517C264.252 61.5504 264.203 60.9207 264.28 60.3C264.205 59.6826 264.255 59.0563 264.427 58.4585C264.598 57.8606 264.889 57.3034 265.28 56.82C265.998 56.1458 266.945 55.7704 267.93 55.7704C268.915 55.7704 269.862 56.1458 270.58 56.82C270.98 57.2996 271.28 57.855 271.46 58.4529C271.64 59.0509 271.698 59.6792 271.63 60.3C271.7 60.9241 271.643 61.5558 271.462 62.1572C271.282 62.7587 270.982 63.3175 270.58 63.8ZM269.23 57.87C269.057 57.7015 268.852 57.5695 268.627 57.4819C268.402 57.3942 268.161 57.3528 267.92 57.36C267.682 57.3538 267.445 57.3958 267.223 57.4834C267.001 57.571 266.8 57.7025 266.63 57.87C266.117 58.5696 265.891 59.4393 266 60.3C265.888 61.1595 266.11 62.0291 266.62 62.73C266.787 62.9021 266.988 63.0379 267.21 63.1291C267.432 63.2203 267.67 63.2648 267.91 63.26C268.153 63.2658 268.395 63.2218 268.62 63.1306C268.845 63.0395 269.049 62.9031 269.22 62.73C269.73 62.0291 269.952 61.1595 269.84 60.3C269.954 59.4419 269.736 58.5724 269.23 57.87Z" fill="#414042"/>
<path d="M279 64.75V59.34C279.04 59.0861 279.024 58.8265 278.951 58.5798C278.879 58.3332 278.752 58.1059 278.581 57.9143C278.409 57.7228 278.197 57.5719 277.96 57.4725C277.723 57.3732 277.467 57.3279 277.21 57.34C276.951 57.3272 276.693 57.3717 276.454 57.4702C276.214 57.5687 276 57.7188 275.825 57.9098C275.65 58.1008 275.52 58.328 275.443 58.5752C275.366 58.8224 275.344 59.0836 275.38 59.34V64.75H273.59V55.87H275.34V56.77C275.641 56.4472 276.007 56.1914 276.414 56.0191C276.82 55.8468 277.259 55.762 277.7 55.77C278.506 55.7415 279.292 56.0285 279.89 56.57C280.205 56.9032 280.447 57.2987 280.6 57.7309C280.754 58.1632 280.815 58.6227 280.78 59.08V64.75H279Z" fill="#414042"/>
<path d="M284.33 60.83C284.286 61.1464 284.312 61.4686 284.406 61.7739C284.5 62.0792 284.66 62.3601 284.875 62.5967C285.089 62.8333 285.353 63.0199 285.648 63.1431C285.943 63.2664 286.261 63.3234 286.58 63.31C286.986 63.3334 287.391 63.2635 287.766 63.1058C288.14 62.948 288.473 62.7066 288.74 62.4L289.87 63.47C289.456 63.9343 288.942 64.2993 288.367 64.5382C287.793 64.7771 287.172 64.8837 286.55 64.85C284.33 64.85 282.55 63.68 282.55 60.3C282.55 57.43 284.04 55.77 286.31 55.77C288.58 55.77 290.07 57.52 290.07 60.04V60.83H284.33ZM288.07 58.38C287.927 58.0371 287.683 57.746 287.371 57.5458C287.058 57.3456 286.691 57.2458 286.32 57.26C285.946 57.246 285.577 57.3455 285.261 57.5454C284.945 57.7453 284.697 58.0363 284.55 58.38C284.387 58.7584 284.312 59.1686 284.33 59.58H288.33C288.336 59.1655 288.247 58.7551 288.07 58.38Z" fill="#414042"/>
<path d="M294.93 68.4399C294.356 68.4731 293.781 68.3862 293.242 68.1848C292.703 67.9833 292.212 67.6717 291.8 67.2699L292.94 66.1299C293.185 66.391 293.483 66.5965 293.815 66.7328C294.146 66.869 294.502 66.9328 294.86 66.9199C295.158 66.9435 295.457 66.9002 295.735 66.7931C296.014 66.6861 296.265 66.518 296.47 66.3013C296.675 66.0846 296.829 65.8247 296.921 65.5407C297.013 65.2567 297.04 64.9557 297 64.6599V63.5199C296.723 63.8564 296.37 64.1225 295.97 64.2963C295.57 64.4701 295.135 64.5467 294.7 64.5199C294.314 64.5346 293.928 64.4723 293.566 64.3366C293.204 64.201 292.872 63.9948 292.59 63.7299C291.73 62.8699 291.59 61.6299 291.59 60.1199C291.59 58.6099 291.73 57.3799 292.59 56.5199C293.172 55.9948 293.937 55.7184 294.72 55.7499C295.161 55.714 295.603 55.7863 296.009 55.9606C296.415 56.1349 296.773 56.4059 297.05 56.7499V55.7499H298.78V64.5699C298.827 65.0882 298.76 65.6106 298.584 66.1002C298.407 66.5898 298.126 67.0348 297.759 67.4038C297.392 67.7727 296.948 68.0567 296.459 68.2358C295.971 68.4148 295.449 68.4845 294.93 68.4399ZM295.14 57.3599C293.53 57.3599 293.32 58.7399 293.32 60.1399C293.32 61.5399 293.53 62.9299 295.14 62.9299C296.75 62.9299 297 61.5399 297 60.1399C297 58.7399 296.75 57.3599 295.14 57.3599Z" fill="#414042"/>
<path d="M307 63.8001C306.282 64.4743 305.335 64.8497 304.35 64.8497C303.365 64.8497 302.418 64.4743 301.7 63.8001C301.307 63.3136 301.016 62.753 300.844 62.1517C300.672 61.5504 300.623 60.9207 300.7 60.3001C300.625 59.6826 300.675 59.0563 300.846 58.4585C301.018 57.8607 301.309 57.3035 301.7 56.8201C302.418 56.1458 303.365 55.7704 304.35 55.7704C305.335 55.7704 306.282 56.1458 307 56.8201C307.4 57.2996 307.699 57.855 307.88 58.453C308.06 59.0509 308.118 59.6792 308.05 60.3001C308.12 60.9241 308.063 61.5558 307.882 62.1573C307.702 62.7587 307.402 63.3175 307 63.8001ZM305.66 57.8701C305.484 57.7021 305.278 57.5706 305.051 57.4831C304.824 57.3955 304.583 57.3537 304.34 57.3601C304.102 57.3538 303.865 57.3958 303.643 57.4834C303.421 57.5711 303.22 57.7026 303.05 57.8701C302.544 58.5724 302.326 59.4419 302.44 60.3001C302.326 61.1582 302.544 62.0277 303.05 62.7301C303.217 62.9021 303.418 63.0379 303.64 63.1291C303.862 63.2203 304.1 63.2649 304.34 63.2601C304.584 63.2649 304.827 63.2204 305.054 63.1293C305.281 63.0383 305.487 62.9025 305.66 62.7301C306.162 62.0255 306.379 61.1579 306.27 60.3001C306.382 59.4434 306.168 58.576 305.67 57.8701H305.66ZM304.78 54.2601H303.43L304.75 51.4301H306.75L304.78 54.2601Z" fill="#414042"/>
<path d="M313.49 64.85C311.49 64.85 309.54 63.63 309.54 60.3C309.54 56.97 311.54 55.77 313.49 55.77C314.038 55.7409 314.586 55.8365 315.091 56.0496C315.597 56.2626 316.048 56.5876 316.41 57L315.19 58.19C314.994 57.9253 314.737 57.711 314.441 57.565C314.146 57.4189 313.82 57.3452 313.49 57.35C313.174 57.3425 312.86 57.4102 312.575 57.5476C312.29 57.6849 312.041 57.8879 311.85 58.14C311.427 58.7725 311.24 59.5334 311.32 60.29C311.24 61.0529 311.427 61.8199 311.85 62.46C312.041 62.712 312.29 62.915 312.575 63.0524C312.86 63.1897 313.174 63.2574 313.49 63.25C313.82 63.2547 314.146 63.181 314.441 63.035C314.737 62.8889 314.994 62.6747 315.19 62.41L316.41 63.58C316.051 63.9985 315.602 64.3302 315.096 64.5502C314.59 64.7702 314.041 64.8726 313.49 64.85Z" fill="#414042"/>
<path d="M317.94 54.12V52.23H319.83V54.12H317.94ZM318 64.75V55.87H319.79V64.75H318Z" fill="#414042"/>
<path d="M328.06 63.8C327.707 64.1397 327.287 64.4036 326.828 64.5755C326.369 64.7475 325.88 64.8239 325.39 64.8C324.905 64.8233 324.42 64.7465 323.966 64.5745C323.512 64.4025 323.098 64.1388 322.75 63.8C322.348 63.3174 322.048 62.7586 321.868 62.1572C321.687 61.5557 321.63 60.924 321.7 60.3C321.632 59.6791 321.69 59.0508 321.87 58.4529C322.051 57.8549 322.35 57.2995 322.75 56.82C323.098 56.4811 323.512 56.2174 323.966 56.0454C324.42 55.8734 324.905 55.7966 325.39 55.82C325.88 55.796 326.369 55.8724 326.828 56.0444C327.287 56.2163 327.707 56.4802 328.06 56.82C328.458 57.3007 328.756 57.8562 328.937 58.4539C329.117 59.0515 329.176 59.6792 329.11 60.3C329.177 60.9239 329.119 61.5549 328.938 62.1559C328.758 62.757 328.459 63.3159 328.06 63.8ZM326.71 57.87C326.535 57.7016 326.328 57.5698 326.101 57.4822C325.875 57.3946 325.633 57.3531 325.39 57.36C325.152 57.3537 324.915 57.3957 324.693 57.4833C324.471 57.571 324.27 57.7025 324.1 57.87C323.598 58.5745 323.381 59.4421 323.49 60.3C323.381 61.1578 323.598 62.0254 324.1 62.73C324.267 62.902 324.468 63.0378 324.69 63.129C324.912 63.2202 325.15 63.2648 325.39 63.26C325.635 63.2659 325.878 63.222 326.105 63.1309C326.332 63.0398 326.538 62.9033 326.71 62.73C327.212 62.0254 327.429 61.1578 327.32 60.3C327.429 59.4421 327.212 58.5745 326.71 57.87Z" fill="#414042"/>
<path d="M333.9 64.85C333.225 64.909 332.545 64.8256 331.904 64.6051C331.263 64.3846 330.676 64.0319 330.18 63.57L331.35 62.4C331.689 62.7204 332.091 62.9681 332.529 63.128C332.967 63.2879 333.434 63.3567 333.9 63.33C334.99 63.33 335.9 62.94 335.9 62.1C335.9 61.51 335.56 61.1 334.71 61.05L333.29 60.93C331.63 60.79 330.66 60.04 330.66 58.48C330.66 56.75 332.15 55.77 334.01 55.77C335.192 55.6922 336.361 56.0478 337.3 56.77L336.18 57.9C335.547 57.4386 334.772 57.2123 333.99 57.26C332.92 57.26 332.38 57.73 332.38 58.39C332.38 59.05 332.66 59.32 333.6 59.39L335 59.51C336.67 59.65 337.65 60.44 337.65 62.01C337.6 63.89 336 64.85 333.9 64.85Z" fill="#414042"/>
</g>
<defs>
<clipPath id="clip0_242_2">
<rect width="337.6" height="81.18" fill="white"/>
</clipPath>
</defs>
</svg>
